<mxfile host="app.diagrams.net" modified="2024-03-15T12:17:04.109Z" agent="Mozilla/5.0 (Windows NT 10.0; Win64; x64) AppleWebKit/537.36 (KHTML, like Gecko) Chrome/122.0.0.0 Safari/537.36" version="24.0.7" etag="mGae8zh4bPK9lvkcG2Os" type="github">
  <diagram name="Seite-1" id="AQqILg9J_mZ91q_F1waY">
    <mxGraphModel>
      <root>
        <mxCell id="0" />
        <mxCell id="1" parent="0" />
      </root>
    </mxGraphModel>
  </diagram>
</mxfile>
